<?xml version="1.0" encoding="UTF-8"?>
<svg id="Camada_3" data-name="Camada 3" xmlns="http://www.w3.org/2000/svg" xmlns:xlink="http://www.w3.org/1999/xlink" viewBox="0 0 2160 858.17">
  <defs>
    <style>
      .cls-1 {
        fill: url(#Gradiente_sem_nome_12);
      }

      .cls-2 {
        fill: #07f;
      }

      .cls-3 {
        fill: url(#Gradiente_sem_nome_12-2);
      }
    </style>
    <linearGradient id="Gradiente_sem_nome_12" data-name="Gradiente sem nome 12" x1="2660.61" y1="9435.97" x2="2896" y2="9585.78" gradientTransform="translate(3433.96 9901.83) rotate(-180)" gradientUnits="userSpaceOnUse">
      <stop offset="0" stop-color="#005499"/>
      <stop offset=".75" stop-color="#07f"/>
    </linearGradient>
    <linearGradient id="Gradiente_sem_nome_12-2" data-name="Gradiente sem nome 12" x1="6068.41" y1="12540.11" x2="6303.8" y2="12689.92" gradientTransform="translate(-5804.19 -12147.79)" xlink:href="#Gradiente_sem_nome_12"/>
  </defs>
  <g>
    <g>
      <path class="cls-1" d="M711.83,568.84c10.44-9.11,44.94-41.06,37.95-73.74-3.65-17.06-17.14-27.46-24.7-33.12-49.99-37.45-123.55-84.96-161.78-109.24-14.21-9.02-22.74-24.75-22.56-41.58.16-14.86.31-29.73.47-44.59.42-39.88,45.06-63.25,78.08-40.88l144.19,97.73c76.18,51.63,74.76,164.32-2.7,214.02-16.32,10.47-32.63,20.94-48.95,31.4Z"/>
      <path class="cls-2" d="M714.16,290.1c10.38,9.18,44.68,41.35,37.48,73.98-3.76,17.04-17.31,27.35-24.9,32.96-50.23,37.14-124.08,84.18-162.47,108.21-14.27,8.93-22.89,24.6-22.82,41.44.06,14.87.13,29.73.19,44.6.17,39.88,44.66,63.53,77.82,41.37l144.81-96.81c76.5-51.15,75.79-163.85-1.35-214.03-16.25-10.57-32.5-21.14-48.75-31.71Z"/>
    </g>
    <g>
      <path class="cls-3" d="M325.74,289.33c-10.44,9.11-44.94,41.06-37.95,73.74,3.65,17.06,17.14,27.46,24.7,33.12,49.99,37.45,123.55,84.96,161.78,109.24,14.21,9.02,22.74,24.75,22.56,41.58-.16,14.86-.31,29.73-.47,44.59-.42,39.88-45.06,63.25-78.08,40.88l-144.19-97.73c-76.18-51.63-74.76-164.32,2.7-214.02,16.32-10.47,32.63-20.94,48.95-31.4Z"/>
      <path class="cls-2" d="M323.41,568.08c-10.38-9.18-44.68-41.35-37.48-73.98,3.76-17.04,17.31-27.35,24.9-32.96,50.23-37.14,124.08-84.18,162.47-108.21,14.27-8.93,22.89-24.6,22.82-41.44-.06-14.87-.13-29.73-.19-44.6-.17-39.88-44.66-63.53-77.82-41.37l-144.81,96.81c-76.5,51.15-75.79,163.85,1.35,214.03,16.25,10.57,32.5,21.14,48.75,31.71Z"/>
    </g>
  </g>
  <g>
    <path class="cls-2" d="M1029.28,535.9c-17.88,0-33.24-3.12-46.06-9.35-12.83-6.23-23.3-14.45-31.43-24.66-8.13-10.2-14.14-21.22-18.02-33.06-3.89-11.83-5.82-23.34-5.82-34.55v-5.96c0-12.28,1.99-24.43,5.96-36.44,3.97-12.01,10.07-22.89,18.29-32.65,8.22-9.76,18.6-17.57,31.16-23.44,12.55-5.87,27.41-8.81,44.57-8.81s33.69,3.35,47.42,10.03c13.72,6.69,24.7,15.94,32.92,27.77,8.22,11.83,13.05,25.7,14.5,41.59h-44.71c-1.27-7.95-4.16-14.72-8.67-20.32-4.52-5.6-10.34-9.93-17.48-13.01-7.14-3.07-15.13-4.61-23.98-4.61s-16.71,1.54-23.57,4.61c-6.87,3.07-12.6,7.41-17.21,13.01-4.61,5.6-8.13,12.24-10.57,19.91-2.44,7.68-3.66,16.22-3.66,25.6s1.22,17.66,3.66,25.33c2.44,7.68,6.05,14.36,10.84,20.05,4.78,5.69,10.7,10.03,17.75,13.01,7.04,2.98,15.08,4.47,24.11,4.47,13.73,0,25.33-3.34,34.82-10.03,9.48-6.68,15.22-15.89,17.21-27.64h44.44c-1.63,14.45-6.46,27.68-14.5,39.69-8.04,12.02-18.97,21.59-32.78,28.72-13.82,7.13-30.21,10.7-49.18,10.7Z"/>
    <path class="cls-2" d="M1219.76,535.9c-13.01,0-24.57-2.03-34.68-6.1-10.12-4.06-18.65-9.62-25.6-16.66-6.96-7.04-12.24-15.13-15.85-24.25-3.62-9.12-5.42-18.74-5.42-28.86v-6.23c0-10.3,1.85-20.09,5.55-29.4,3.7-9.3,9.12-17.48,16.26-24.52,7.13-7.04,15.76-12.6,25.87-16.66,10.11-4.06,21.41-6.1,33.87-6.1s24.25,2.03,34.28,6.1c10.03,4.06,18.56,9.62,25.6,16.66,7.04,7.04,12.46,15.22,16.26,24.52,3.79,9.31,5.69,19.1,5.69,29.4v6.23c0,10.12-1.81,19.74-5.42,28.86-3.62,9.12-8.9,17.21-15.85,24.25-6.96,7.04-15.49,12.6-25.6,16.66-10.12,4.06-21.77,6.1-34.95,6.1ZM1219.76,499.32c8.49,0,15.53-1.8,21.13-5.42,5.6-3.61,9.89-8.67,12.87-15.17,2.98-6.5,4.47-13.73,4.47-21.68,0-8.49-1.54-15.94-4.61-22.35-3.07-6.41-7.45-11.52-13.14-15.31-5.69-3.79-12.6-5.69-20.73-5.69s-14.81,1.9-20.59,5.69c-5.78,3.79-10.16,8.9-13.14,15.31-2.98,6.41-4.47,13.86-4.47,22.35,0,7.95,1.44,15.17,4.33,21.68,2.89,6.5,7.22,11.56,13.01,15.17,5.78,3.62,12.73,5.42,20.86,5.42Z"/>
    <path class="cls-2" d="M1387.75,535.63c-10.48,0-20.01-1.9-28.59-5.69-8.58-3.79-16.03-9.08-22.35-15.85-6.33-6.77-11.16-14.77-14.5-23.98-3.35-9.21-5.01-19.14-5.01-29.81v-6.23c0-10.66,1.58-20.59,4.74-29.81,3.16-9.21,7.76-17.29,13.82-24.25,6.05-6.95,13.32-12.37,21.81-16.26,8.49-3.88,17.97-5.83,28.45-5.83,11.92,0,22.22,2.57,30.89,7.72,8.67,5.15,15.44,12.74,20.32,22.76,4.88,10.03,7.59,22.35,8.13,36.98l-11.38-10.57v-101.88h43.62v197.79h-34.41v-61.5h5.96c-.54,14.09-3.48,26.1-8.81,36.04-5.33,9.94-12.51,17.48-21.54,22.62-9.03,5.15-19.42,7.72-31.16,7.72ZM1398.58,499.32c6.68,0,12.78-1.49,18.29-4.47,5.51-2.98,9.93-7.36,13.28-13.14,3.34-5.78,5.01-12.74,5.01-20.86v-10.03c0-7.95-1.72-14.63-5.15-20.05-3.43-5.42-7.95-9.57-13.55-12.46-5.6-2.89-11.65-4.33-18.15-4.33-7.23,0-13.68,1.85-19.37,5.55-5.69,3.71-10.16,8.76-13.41,15.17-3.25,6.41-4.88,13.86-4.88,22.35s1.63,16.17,4.88,22.49c3.25,6.33,7.76,11.2,13.55,14.63,5.78,3.43,12.28,5.15,19.51,5.15Z"/>
    <path class="cls-2" d="M1498.83,414.25v-31.97h63.13v31.97h-63.13ZM1535.41,367.64c-8.13,0-14.14-2.12-18.02-6.37-3.89-4.24-5.83-9.62-5.83-16.12s1.94-12.15,5.83-16.39c3.88-4.24,9.89-6.37,18.02-6.37s14.13,2.13,18.02,6.37c3.88,4.25,5.82,9.71,5.82,16.39s-1.94,11.88-5.82,16.12c-3.89,4.25-9.89,6.37-18.02,6.37ZM1518.61,530.75v-148.48h43.35v148.48h-43.35Z"/>
    <path class="cls-2" d="M1653,535.36c-21.13,0-37.66-4.33-49.58-13.01-11.92-8.67-18.25-20.86-18.97-36.58h38.47c.72,4.7,3.57,8.9,8.53,12.6,4.97,3.71,12.42,5.55,22.35,5.55,7.59,0,13.86-1.31,18.83-3.93,4.97-2.62,7.45-6.37,7.45-11.24,0-4.34-1.9-7.81-5.69-10.43-3.79-2.62-10.57-4.47-20.32-5.55l-11.65-1.08c-17.88-1.8-31.29-6.77-40.24-14.9-8.94-8.13-13.41-18.51-13.41-31.16,0-10.47,2.62-19.24,7.86-26.28,5.24-7.04,12.51-12.37,21.81-15.99,9.3-3.61,19.91-5.42,31.84-5.42,19.14,0,34.59,4.2,46.33,12.6,11.74,8.4,17.88,20.55,18.42,36.44h-38.47c-.72-4.88-3.25-8.98-7.59-12.33-4.33-3.34-10.75-5.01-19.24-5.01-6.68,0-12.01,1.27-15.99,3.79-3.98,2.53-5.96,5.96-5.96,10.3s1.71,7.31,5.15,9.48c3.43,2.17,9.03,3.7,16.8,4.61l11.65,1.08c18.24,1.99,32.42,7.04,42.54,15.17,10.11,8.13,15.17,19.06,15.17,32.78,0,9.94-2.71,18.56-8.13,25.87-5.42,7.32-13.1,12.92-23.03,16.8-9.94,3.88-21.59,5.82-34.95,5.82Z"/>
    <path class="cls-2" d="M1809.88,535.9c-12.65,0-23.8-2.17-33.46-6.5-9.66-4.34-17.7-10.16-24.11-17.48-6.41-7.31-11.29-15.53-14.63-24.66-3.35-9.12-5.01-18.47-5.01-28.04v-5.42c0-9.93,1.67-19.46,5.01-28.59,3.34-9.12,8.17-17.29,14.5-24.52,6.32-7.22,14.23-12.96,23.71-17.21,9.48-4.24,20.28-6.37,32.38-6.37,15.89,0,29.3,3.57,40.24,10.7,10.93,7.14,19.28,16.44,25.06,27.91,5.78,11.47,8.67,23.98,8.67,37.53v14.63h-131.41v-24.66h105.13l-14.09,11.38c0-8.85-1.27-16.43-3.79-22.76-2.53-6.32-6.28-11.15-11.24-14.5-4.97-3.34-11.16-5.01-18.56-5.01s-14,1.72-19.24,5.15c-5.24,3.43-9.21,8.45-11.92,15.04-2.71,6.6-4.06,14.68-4.06,24.25,0,8.85,1.26,16.57,3.79,23.17,2.53,6.6,6.5,11.7,11.92,15.31,5.42,3.62,12.46,5.42,21.13,5.42,7.95,0,14.45-1.53,19.51-4.61,5.05-3.07,8.49-6.86,10.3-11.38h39.83c-2.17,9.94-6.41,18.79-12.74,26.55-6.32,7.77-14.27,13.82-23.84,18.15-9.58,4.33-20.59,6.5-33.06,6.5Z"/>
    <path class="cls-2" d="M1896.31,530.75v-48.5h47.69v48.5h-47.69Z"/>
  </g>
</svg>